# xmcd
#
# Track frame offsets:
#	150
#	9786
#	24720
#	39879
#	57455
#	69989
#	83414
#	93717
#	108070
#	121468
#	133860
#	147480
#	158222
#	173228
#	182771
#	194152
#	203634
#	215680
#	226208
#	236684
#	245970
#	259163
#	269848
#	279153
#
# Disc length: 3843 seconds
#
# Revision: 1
# Processed by: cddbd v1.5.2PL0 Copyright (c) Steve Scherf et al.
# Submitted via: audiograbber 1.83.01
#
DISCID=620f0118
DTITLE=Chet Atkins - Chet Atkins In Hollywood Plus The Other Chet Atkins
DYEAR=2013
DGENRE=Country
TTITLE0=Armen's Theme
TTITLE1=Let It Be Me
TTITLE2=Theme From Picnic
TTITLE3=Theme From A Dream
TTITLE4=Estrellita
TTITLE5=Jitterbug Waltz
TTITLE6=Little Old Lady
TTITLE7=Limelight
TTITLE8=The Three Bells
TTITLE9=Santa Lucia
TTITLE10=Greensleeves
TTITLE11=Meet Mr Callaghan
TTITLE12=Begin The Beguine
TTITLE13=Sabrosa
TTITLE14=Yours (Quiereme Mucho)
TTITLE15=Siboney
TTITLE16=The Streets Of Lorado
TTITLE17=Delicado
TTITLE18=The Peanut Vendor
TTITLE19=El Relicario
TTITLE20=Maria Elena
TTITLE21=Marcheta
TTITLE22=Tzena Tzena Tzena
TTITLE23=Poinciana (Song Of A Tree)
EXTD=
EXTT0=
EXTT1=
EXTT2=
EXTT3=
EXTT4=
EXTT5=
EXTT6=
EXTT7=
EXTT8=
EXTT9=
EXTT10=
EXTT11=
EXTT12=
EXTT13=
EXTT14=
EXTT15=
EXTT16=
EXTT17=
EXTT18=
EXTT19=
EXTT20=
EXTT21=
EXTT22=
EXTT23=
PLAYORDER=
